HIERARCHY
ROOT Hips
{
    OFFSET   0.000000   0.000000   0.000000
    CHANNELS 6 Xposition Yposition Zposition Zrotation Xrotation Yrotation
    JOINT Chest
    {
        OFFSET   0.000000   8.007240   0.000000
        CHANNELS 3 Zrotation Xrotation Yrotation
        JOINT Chest2
        {
            OFFSET   0.000000  22.077100   0.000000
            CHANNELS 3 Zrotation Xrotation Yrotation
            JOINT Neck
            {
                OFFSET   0.000000  23.254800   0.000000
                CHANNELS 3 Zrotation Xrotation Yrotation
                JOINT Head
                {
                    OFFSET   0.000000  14.370000   1.956600
                    CHANNELS 3 Zrotation Xrotation Yrotation
                    End Site
                    {
                        OFFSET   0.000000  19.566000   0.000000
                    }
                }
            }
            JOINT LeftCollar
            {
                OFFSET   3.911900  19.017000  -0.467064
                CHANNELS 3 Zrotation Xrotation Yrotation
                JOINT LeftShoulder
                {
                    OFFSET  10.383700   0.000000   0.000000
                    CHANNELS 3 Zrotation Xrotation Yrotation
                    JOINT LeftElbow
                    {
                        OFFSET  26.662100   0.001476   0.000517
                        CHANNELS 3 Zrotation Xrotation Yrotation
                        JOINT LeftWrist
                        {
                            OFFSET  28.869000  -0.000025  -0.000106
                            CHANNELS 3 Zrotation Xrotation Yrotation
                            JOINT LeftFinger0
                            {
                                OFFSET   2.044660  -2.323460   3.252850
                                CHANNELS 3 Zrotation Xrotation Yrotation
                                JOINT LeftFinger01
                                {
                                    OFFSET   3.088130   0.000000   0.000000
                                    CHANNELS 3 Zrotation Xrotation Yrotation
                                    JOINT LeftFinger02
                                    {
                                        OFFSET   2.639460   0.000000   0.000000
                                        CHANNELS 3 Zrotation Xrotation Yrotation
                                        End Site
                                        {
                                            OFFSET   2.582190   0.000000   0.000000
                                        }
                                    }
                                }
                            }
                            JOINT LeftFinger1
                            {
                                OFFSET   8.364480   0.000000   3.252850
                                CHANNELS 3 Zrotation Xrotation Yrotation
                                JOINT LeftFinger11
                                {
                                    OFFSET   4.646930   0.000000   0.000000
                                    CHANNELS 3 Zrotation Xrotation Yrotation
                                    JOINT LeftFinger12
                                    {
                                        OFFSET   2.323460   0.000000   0.000000
                                        CHANNELS 3 Zrotation Xrotation Yrotation
                                        End Site
                                        {
                                            OFFSET   2.273050   0.000000   0.000000
                                        }
                                    }
                                }
                            }
                            JOINT LeftFinger2
                            {
                                OFFSET   8.364490   0.000015   1.078090
                                CHANNELS 3 Zrotation Xrotation Yrotation
                                JOINT LeftFinger21
                                {
                                    OFFSET   5.111620   0.000000   0.000000
                                    CHANNELS 3 Zrotation Xrotation Yrotation
                                    JOINT LeftFinger22
                                    {
                                        OFFSET   2.788160   0.000016   0.000000
                                        CHANNELS 3 Zrotation Xrotation Yrotation
                                        End Site
                                        {
                                            OFFSET   2.727660   0.000000   0.000000
                                        }
                                    }
                                }
                            }
                            JOINT LeftFinger3
                            {
                                OFFSET   7.899780   0.000017  -1.078090
                                CHANNELS 3 Zrotation Xrotation Yrotation
                                JOINT LeftFinger31
                                {
                                    OFFSET   4.646930   0.000000   0.000000
                                    CHANNELS 3 Zrotation Xrotation Yrotation
                                    JOINT LeftFinger32
                                    {
                                        OFFSET   2.323470   0.000000   0.000000
                                        CHANNELS 3 Zrotation Xrotation Yrotation
                                        End Site
                                        {
                                            OFFSET   2.273050   0.000000   0.000000
                                        }
                                    }
                                }
                            }
                            JOINT LeftFinger4
                            {
                                OFFSET   7.435090   0.000000  -3.252850
                                CHANNELS 3 Zrotation Xrotation Yrotation
                                JOINT LeftFinger41
                                {
                                    OFFSET   3.717550   0.000000   0.000000
                                    CHANNELS 3 Zrotation Xrotation Yrotation
                                    JOINT LeftFinger42
                                    {
                                        OFFSET   1.858770   0.000000   0.000000
                                        CHANNELS 3 Zrotation Xrotation Yrotation
                                        End Site
                                        {
                                            OFFSET   1.818440   0.000000   0.000000
                                        }
                                    }
                                }
                            }
                        }
                    }
                }
            }
            JOINT RightCollar
            {
                OFFSET  -3.911900  19.017000  -0.467063
                CHANNELS 3 Zrotation Xrotation Yrotation
                JOINT RightShoulder
                {
                    OFFSET -10.383700   0.000019   0.000000
                    CHANNELS 3 Zrotation Xrotation Yrotation
                    JOINT RightElbow
                    {
                        OFFSET -26.662100   0.001175   0.000102
                        CHANNELS 3 Zrotation Xrotation Yrotation
                        JOINT RightWrist
                        {
                            OFFSET -28.869000   0.000016  -0.000079
                            CHANNELS 3 Zrotation Xrotation Yrotation
                            JOINT RightFinger0
                            {
                                OFFSET  -2.044660  -2.323490   3.252850
                                CHANNELS 3 Zrotation Xrotation Yrotation
                                JOINT RightFinger01
                                {
                                    OFFSET  -3.088140   0.000000   0.000000
                                    CHANNELS 3 Zrotation Xrotation Yrotation
                                    JOINT RightFinger02
                                    {
                                        OFFSET  -2.639460   0.000000   0.000000
                                        CHANNELS 3 Zrotation Xrotation Yrotation
                                        End Site
                                        {
                                            OFFSET  -2.582190   0.000000   0.000000
                                        }
                                    }
                                }
                            }
                            JOINT RightFinger1
                            {
                                OFFSET  -8.364480   0.000000   3.252850
                                CHANNELS 3 Zrotation Xrotation Yrotation
                                JOINT RightFinger11
                                {
                                    OFFSET  -4.646930   0.000000   0.000000
                                    CHANNELS 3 Zrotation Xrotation Yrotation
                                    JOINT RightFinger12
                                    {
                                        OFFSET  -2.323470   0.000000   0.000000
                                        CHANNELS 3 Zrotation Xrotation Yrotation
                                        End Site
                                        {
                                            OFFSET  -2.273050   0.000000   0.000000
                                        }
                                    }
                                }
                            }
                            JOINT RightFinger2
                            {
                                OFFSET  -8.364480   0.000000   1.078090
                                CHANNELS 3 Zrotation Xrotation Yrotation
                                JOINT RightFinger21
                                {
                                    OFFSET  -5.111620   0.000000   0.000000
                                    CHANNELS 3 Zrotation Xrotation Yrotation
                                    JOINT RightFinger22
                                    {
                                        OFFSET  -2.788160   0.000000   0.000000
                                        CHANNELS 3 Zrotation Xrotation Yrotation
                                        End Site
                                        {
                                            OFFSET  -2.727660   0.000000   0.000000
                                        }
                                    }
                                }
                            }
                            JOINT RightFinger3
                            {
                                OFFSET  -7.899780   0.000000  -1.078090
                                CHANNELS 3 Zrotation Xrotation Yrotation
                                JOINT RightFinger31
                                {
                                    OFFSET  -4.646930   0.000000   0.000000
                                    CHANNELS 3 Zrotation Xrotation Yrotation
                                    JOINT RightFinger32
                                    {
                                        OFFSET  -2.323470   0.000000   0.000000
                                        CHANNELS 3 Zrotation Xrotation Yrotation
                                        End Site
                                        {
                                            OFFSET  -2.273050   0.000000   0.000000
                                        }
                                    }
                                }
                            }
                            JOINT RightFinger4
                            {
                                OFFSET  -7.435090   0.000000  -3.252850
                                CHANNELS 3 Zrotation Xrotation Yrotation
                                JOINT RightFinger41
                                {
                                    OFFSET  -3.717550   0.000000   0.000000
                                    CHANNELS 3 Zrotation Xrotation Yrotation
                                    JOINT RightFinger42
                                    {
                                        OFFSET  -1.858770   0.000000   0.000000
                                        CHANNELS 3 Zrotation Xrotation Yrotation
                                        End Site
                                        {
                                            OFFSET  -1.818440   0.000000   0.000000
                                        }
                                    }
                                }
                            }
                        }
                    }
                }
            }
        }
    }
    JOINT LeftHip
    {
        OFFSET   9.783040   0.000000   0.000000
        CHANNELS 3 Zrotation Xrotation Yrotation
        JOINT LeftKnee
        {
            OFFSET   0.000032 -41.789100  -0.002222
            CHANNELS 3 Zrotation Xrotation Yrotation
            JOINT LeftAnkle
            {
                OFFSET   0.000087 -41.133200  -0.000135
                CHANNELS 3 Zrotation Xrotation Yrotation
                JOINT LeftToe
                {
                    OFFSET   0.000000  -6.358960  14.674500
                    CHANNELS 3 Zrotation Xrotation Yrotation
                    End Site
                    {
                        OFFSET   0.000000   0.000000   3.913200
                    }
                }
            }
        }
    }
    JOINT RightHip
    {
        OFFSET  -9.783040   0.000000   0.000000
        CHANNELS 3 Zrotation Xrotation Yrotation
        JOINT RightKnee
        {
            OFFSET   0.000047 -41.789100  -0.000896
            CHANNELS 3 Zrotation Xrotation Yrotation
            JOINT RightAnkle
            {
                OFFSET  -0.000117 -41.133300  -0.000248
                CHANNELS 3 Zrotation Xrotation Yrotation
                JOINT RightToe
                {
                    OFFSET   0.000000  -6.358970  14.674500
                    CHANNELS 3 Zrotation Xrotation Yrotation
                    End Site
                    {
                        OFFSET   0.000000   0.000000   3.913200
                    }
                }
            }
        }
    }
}
MOTION
Frames: 6
Frame Time:   0.016667
 -3.506580  89.505500   0.382565  -1.745110  -4.707940   4.102570   1.940160   3.687090  -1.728510   4.003410   7.311640  -3.592420  -0.142604  -0.017324   0.009604  -0.234311  -0.035649   7.015660  -7.736530   3.591990  -0.815397 -67.922600  15.127800  -6.379790  -2.907860 -10.251600 -10.877100   2.413720 -12.125000   8.228480  41.675200  34.480300 -75.802400 -20.848000   0.001275   0.000591  -5.424010   0.000692   0.000263 -28.120100   5.794170 -10.697900 -23.451200   0.007358  -0.003919 -16.415900   0.005236   0.003012 -27.646400   1.577230  -3.008300 -30.140600   0.002733  -0.002133 -20.073600  -0.000233  -0.000867 -27.309300  -0.234469   0.454061 -28.313600  -0.000718  -0.000062 -18.856800   0.000563   0.000170 -27.404000  -1.895590   3.672430 -41.196600  -0.001491   0.001799 -27.436900   0.000428   0.001188   5.042580   0.163395  12.553600  67.955700   3.838380   1.066990   1.821680 -11.634700   3.265520  -9.654500 -11.989600   1.725610 -41.512500  34.198100  71.539600  26.029800   0.001159  -0.002209   8.014860   0.000613  -0.007817  30.412000   8.028750  13.384800  25.654400   0.003491  -0.003533  17.958100   0.001209  -0.003484  28.160400   4.696050   8.695540  36.350700   0.003977  -0.004687  24.209600  -0.000656  -0.006066  28.591000   2.648100   4.845170  39.149500  -0.002055  -0.002063  26.073600   0.000068  -0.001930  35.219400   0.187480   0.265507  52.829700   0.002045  -0.001268  35.184600  -0.005399  -0.001432   3.453940   6.549790   2.140340   0.948679   0.097741   8.744750  -3.063000  -1.254880  -0.319753  -0.000000   0.000000  -0.000000   2.639180   0.317531  -3.863810   0.731215   7.767340  -8.559000  -3.987270  -3.211680  -6.100760  -0.000000   0.000000   0.000000
 -3.505200  89.505400   0.373318  -1.738370  -4.741960   4.154430   1.942640   3.708870  -1.734520   4.009580   7.354860  -3.605510  -0.133852  -0.006250   0.009595  -0.219973  -0.013071   7.009570  -7.780160   3.567510  -0.875234 -67.915900  15.009900  -6.348530  -2.903230 -10.325800 -11.044700   2.437440 -12.220200   8.210390  41.572900  34.462400 -75.811500 -20.816200   0.001261   0.000569  -5.408100   0.000692   0.000263 -28.154800   5.833590 -10.752700 -23.483300   0.007358  -0.003920 -16.438400   0.005235   0.003012 -27.644400   1.595880  -3.043730 -30.145300   0.002737  -0.002133 -20.076700  -0.000233  -0.000868 -27.326300  -0.222479   0.430422 -28.390100  -0.000722  -0.000062 -18.907800   0.000563   0.000169 -27.440700  -1.895630   3.653420 -41.252000  -0.001491   0.001799 -27.473800   0.000427   0.001188   5.071860   0.138838  12.605400  67.858800   3.774010   1.087950   1.808280 -11.632200   3.270520  -9.618940 -11.922100   1.728140 -41.556100  34.220200  71.608600  25.962400   0.001113  -0.002183   7.981180   0.000459  -0.007820  30.376100   8.043030  13.425500  25.628900   0.003485  -0.003531  17.940200   0.001209  -0.003484  28.153700   4.707160   8.718040  36.293100   0.003968  -0.004680  24.171200  -0.000656  -0.006054  28.591000   2.650450   4.849600  39.127700  -0.002058  -0.002075  26.059100   0.000065  -0.001940  35.199700   0.192131   0.272194  52.800200   0.002041  -0.001261  35.165000  -0.005399  -0.001426   3.451710   6.564170   2.153320   0.946790   0.105367   8.710300  -3.058550  -1.249440  -0.348221   0.000000   0.000000  -0.000000   2.650300   0.335728  -3.855500   0.724426   7.805040  -8.586060  -3.978410  -3.229200  -6.135050   0.000000   0.000000   0.000000
 -3.501160  89.505300   0.358929  -1.728010  -4.794670   4.232270   1.948130   3.743100  -1.742970   4.022430   7.422780  -3.624200  -0.122112   0.015932   0.009577  -0.200621   0.032061   6.990550  -7.854430   3.527700  -0.966873 -67.917000  14.779200  -6.282760  -2.906090 -10.474900 -11.376800   2.460040 -12.357000   8.160770  41.449300  34.411200 -75.835300 -20.729100   0.001235   0.000537  -5.364520   0.000690   0.000261 -28.181700   5.892500 -10.845800 -23.515500   0.007359  -0.003921 -16.460900   0.005234   0.003012 -27.641600   1.621930  -3.093500 -30.149900   0.002747  -0.002133 -20.079800  -0.000234  -0.000870 -27.351300  -0.210490   0.406783 -28.505100  -0.000731  -0.000062 -18.984400   0.000563   0.000168 -27.505300  -1.895670   3.634410 -41.348900  -0.001491   0.001799 -27.538400   0.000424   0.001188   5.116920   0.102653  12.692300  67.683300   3.643810   1.136000   1.769270 -11.614400   3.290650  -9.528750 -11.751700   1.747760 -41.637900  34.236700  71.759300  25.788300   0.001037  -0.002132   7.894140   0.000306  -0.007830  30.300000   8.067580  13.503500  25.573800   0.003473  -0.003527  17.901600   0.001209  -0.003483  28.140000   4.727360   8.759520  36.174300   0.003952  -0.004666  24.092100  -0.000657  -0.006023  28.588700   2.666270   4.879230  39.059200  -0.002068  -0.002104  26.013500   0.000061  -0.001963  35.159200   0.201662   0.285976  52.739600   0.002034  -0.001244  35.124600  -0.005402  -0.001411   3.448820   6.594250   2.166360   0.941969   0.112999   8.660610  -3.050560  -1.235450  -0.389427   0.000000   0.000000  -0.000000   2.662460   0.369438  -3.847190   0.714625   7.846740  -8.635440  -3.965810  -3.254230  -6.169380   0.000000   0.000000   0.000000
 -3.494060  89.505200   0.349098  -1.721980  -4.827150   4.277730   1.955640   3.765430  -1.746710   4.038600   7.467050  -3.633410  -0.119363   0.042512   0.009558  -0.196010   0.085951   6.963660  -7.920650   3.491880  -1.034260 -67.945600  14.525300  -6.192370  -2.935390 -10.655000 -11.755900   2.435140 -12.391700   8.076010  41.268900  34.280700 -75.785300 -20.574000   0.001209   0.000529  -5.286990   0.000672   0.000248 -28.138800   5.931130 -10.944500 -23.489500   0.007357  -0.003919 -16.442700   0.005233   0.003011 -27.638600   1.632910  -3.115450 -30.138300   0.002761  -0.002136 -20.072100  -0.000236  -0.000871 -27.367000  -0.210902   0.407289 -28.582200  -0.000746  -0.000061 -19.035700   0.000563   0.000165 -27.574600  -1.923150   3.678680 -41.458800  -0.001490   0.001799 -27.611600   0.000419   0.001189   5.146000   0.080657  12.761600  67.515800   3.499900   1.204940   1.708560 -11.571000   3.316750  -9.401370 -11.493600   1.786390 -41.690700  34.207700  71.971500  25.523400   0.000962  -0.002060   7.761680   0.000676  -0.007852  30.209800   8.087280  13.582000  25.506700   0.003460  -0.003525  17.854600   0.001207  -0.003477  28.125800   4.745400   8.797370  36.046400   0.003933  -0.004647  24.006900  -0.000661  -0.005974  28.578600   2.710220   4.961210  38.940000  -0.002082  -0.002142  25.934100   0.000062  -0.001995  35.111700   0.212837   0.302211  52.668500   0.002024  -0.001215  35.077200  -0.005408  -0.001391   3.447390   6.632160   2.165870   0.937801   0.083909   8.634130  -3.042420  -1.210960  -0.409946   0.000000   0.000000   0.000000   2.663700   0.403094  -3.847560   0.711545   7.850880  -8.686860  -3.962220  -3.265110  -6.159850  -0.000000   0.000000   0.000000
 -3.485320  89.505100   0.341424  -1.718220  -4.857490   4.310400   1.964190   3.786750  -1.748040   4.056640   7.509340  -3.637220  -0.118137   0.071539   0.009532  -0.194065   0.144791   6.912180  -7.981270   3.469360  -1.069840 -67.985000  14.224700  -6.103870  -2.969660 -10.850300 -12.193600   2.369170 -12.457200   7.976090  41.021700  34.126200 -75.685100 -20.405300   0.001178   0.000518  -5.202650   0.000645   0.000234 -28.059100   5.950250 -11.004800 -23.427200   0.007354  -0.003917 -16.399100   0.005233   0.003010 -27.630100   1.636480  -3.123050 -30.096400   0.002777  -0.002139 -20.044200  -0.000239  -0.000873 -27.374600  -0.213782   0.410829 -28.620900  -0.000765  -0.000060 -19.061500   0.000564   0.000161 -27.619700  -1.976570   3.770320 -41.528200  -0.001488   0.001800 -27.657800   0.000414   0.001189   5.168470   0.070289  12.833800  67.328000   3.311780   1.283620   1.614780 -11.483100   3.386100  -9.217740 -11.165600   1.867710 -41.816300  34.152500  72.190500  25.175800   0.000916  -0.002011   7.587900   0.001477  -0.007875  30.090100   8.110910  13.683100  25.417100   0.003446  -0.003523  17.792000   0.001204  -0.003468  28.104900   4.768750   8.847440  35.861600   0.003913  -0.004623  23.883800  -0.000667  -0.005910  28.564100   2.755840   5.046880  38.776000  -0.002100  -0.002189  25.824800   0.000064  -0.002035  35.053300   0.226523   0.322281  52.581000   0.002011  -0.001178  35.018900  -0.005417  -0.001365   3.446280   6.675310   2.161430   0.933785   0.040600   8.622880  -3.034770  -1.186510  -0.421659   0.000000   0.000000  -0.000000   2.662670   0.441637  -3.849680   0.714587   7.850550  -8.738500  -3.959250  -3.271640  -6.138100   0.000000   0.000000   0.000000
 -3.476600  89.505100   0.337032  -1.716940  -4.890990   4.330660   1.972200   3.809570  -1.744180   4.073310   7.554840  -3.630640  -0.114625   0.098988   0.009491  -0.188343   0.200563   6.817800  -8.019680   3.467000  -1.068520 -68.025200  13.876100  -6.055640  -3.002550 -11.026800 -12.641300   2.268830 -12.660600   7.855920  40.890800  34.011000 -75.598200 -20.282400   0.001133   0.000483  -5.141170   0.000624   0.000232 -27.944800   5.909860 -10.973800 -23.329400   0.007357  -0.003920 -16.330600   0.005234   0.003011 -27.619700   1.599690  -3.054070 -30.031600   0.002796  -0.002143 -20.001000  -0.000242  -0.000878 -27.351000  -0.354832   0.682933 -28.517200  -0.000788  -0.000061 -18.992400   0.000565   0.000156 -27.620000  -2.037610   3.884250 -41.529300  -0.001486   0.001802 -27.658500   0.000406   0.001190   5.183800   0.081610  12.909800  67.122300   3.054680   1.361370   1.475580 -11.348800   3.536770  -8.967510 -10.772900   2.022780 -41.983300  34.071000  72.305700  24.798300   0.000948  -0.002039   7.399160   0.002541  -0.007897  29.937100   8.139060  13.809600  25.302100   0.003434  -0.003521  17.711500   0.001201  -0.003459  28.072700   4.797630   8.911900  35.576200   0.003890  -0.004595  23.693700  -0.000671  -0.005833  28.550900   2.770020   5.075460  38.559200  -0.002120  -0.002243  25.680400   0.000069  -0.002081  34.980200   0.243499   0.347626  52.471500   0.001995  -0.001134  34.946000  -0.005428  -0.001335   3.446120   6.719700   2.148470   0.927266   0.012846   8.625100  -3.029780  -1.172650  -0.426246  -0.000000   0.000000   0.000000   2.658680   0.484891  -3.854210   0.719895   7.842800  -8.779540  -3.950990  -3.276490  -6.108770   0.000000   0.000000   0.000000
